# xmcd
# 
# Track frame offsets:
#	183
#	11808
#	23733
#	34533
#	46533
#	59883
#	71808
#	82983
#	92808
#	104508
#	117258
#	131283
#	145533
#	159483
#	170433
#	187458
#	199083
#	210633
#	221283
#	232233
#	244533
#
# Disc length: 3455 seconds
#
# Revision: 2
# Processed by: cddbd v1.4PL0 Copyright (c) Steve Scherf et al.
# Submitted via: Audio-CD-Archiv 2.10.446
#
DISCID=280d7d15
DTITLE=Hans Haider - Golden Country
DYEAR=1900
DGENRE=country
TTITLE0=Silver Flute and Guitar
TTITLE1=Good looking Rosegarden
TTITLE2=Shepherd's Song
TTITLE3=Apple-Tree
TTITLE4=Lonely Lake
TTITLE5=Golden Country
TTITLE6=Morningside
TTITLE7=Summer and Winter
TTITLE8=Sweetheart from Wonderland
TTITLE9=Nordic Maiden
TTITLE10=Bridge over Dads Water
TTITLE11=Rainy Day
TTITLE12=Low Summerwind
TTITLE13=Old Penny Story
TTITLE14=Golden River
TTITLE15=Sally's Dream
TTITLE16=Shepherd's Dance
TTITLE17=Nordic Landscape
TTITLE18=Juana
TTITLE19=Bird's Wedding
TTITLE20=Contemplation
EXTD=
EXTT0=
EXTT1=
EXTT2=
EXTT3=
EXTT4=
EXTT5=
EXTT6=
EXTT7=
EXTT8=
EXTT9=
EXTT10=
EXTT11=
EXTT12=
EXTT13=
EXTT14=
EXTT15=
EXTT16=
EXTT17=
EXTT18=
EXTT19=
EXTT20=
PLAYORDER=
